<?xml version="1.0" encoding="utf-8"?>
<!-- Generator: Adobe Illustrator 15.0.2, SVG Export Plug-In . SVG Version: 6.00 Build 0)  -->
<!DOCTYPE svg PUBLIC "-//W3C//DTD SVG 1.1//EN" "http://www.w3.org/Graphics/SVG/1.1/DTD/svg11.dtd">
<svg version="1.1" id="WB_x5F_NoPatch" xmlns="http://www.w3.org/2000/svg" xmlns:xlink="http://www.w3.org/1999/xlink" x="0px"
	 y="0px" width="7px" height="12px" viewBox="0 0 7 12" enable-background="new 0 0 7 12" xml:space="preserve">
<g>
	<path fill="#FFFFFF" d="M6.254,0.002L4.695,0C2.943,0,1.812,1.158,1.812,2.953v1.361H0.244C0.108,4.314,0,4.424,0,4.56v1.974
		c0,0.135,0.108,0.244,0.244,0.244h1.567v4.979c0,0.136,0.11,0.244,0.245,0.244h2.046c0.135,0,0.244-0.108,0.244-0.244V6.777h1.832
		c0.137,0,0.245-0.109,0.245-0.244L6.426,4.56c0-0.065-0.026-0.127-0.072-0.173C6.309,4.34,6.246,4.314,6.18,4.314H4.348V3.16
		c0-0.555,0.133-0.836,0.857-0.836h1.049C6.39,2.324,6.5,2.215,6.5,2.08V0.248C6.5,0.111,6.39,0.002,6.254,0.002z"/>
</g>
</svg>
