<?xml version="1.0" encoding="utf-8"?>
<!-- Generator: Adobe Illustrator 15.0.2, SVG Export Plug-In . SVG Version: 6.00 Build 0)  -->
<!DOCTYPE svg PUBLIC "-//W3C//DTD SVG 1.1//EN" "http://www.w3.org/Graphics/SVG/1.1/DTD/svg11.dtd">
<svg version="1.1" id="WB_x5F_NoPatch" xmlns="http://www.w3.org/2000/svg" xmlns:xlink="http://www.w3.org/1999/xlink" x="0px"
	 y="0px" width="14px" height="10px" viewBox="0.5 1 14 10" enable-background="new 0.5 1 14 10" xml:space="preserve">
<g>
	<g>
		<path fill="#FFFFFF" d="M13.657,2.184c-0.455,0.202-0.941,0.337-1.451,0.399c0.522-0.313,0.922-0.809,1.11-1.397
			c-0.489,0.289-1.028,0.499-1.604,0.614C11.251,1.308,10.595,1,9.867,1C8.472,1,7.341,2.131,7.341,3.525
			c0,0.197,0.022,0.393,0.066,0.576c-2.1-0.105-3.96-1.111-5.206-2.64C1.983,1.833,1.86,2.267,1.86,2.73
			c0,0.877,0.446,1.65,1.124,2.103C2.569,4.817,2.18,4.705,1.84,4.515v0.033c0,1.223,0.871,2.243,2.026,2.476
			C3.653,7.08,3.432,7.112,3.199,7.112c-0.162,0-0.321-0.017-0.475-0.048c0.321,1.004,1.254,1.733,2.36,1.754
			c-0.865,0.678-1.956,1.08-3.137,1.08c-0.205,0-0.405-0.014-0.604-0.035C2.462,10.582,3.79,11,5.216,11
			c4.646,0,7.185-3.849,7.185-7.187l-0.008-0.327C12.888,3.135,13.317,2.69,13.657,2.184z"/>
	</g>
</g>
</svg>
