<?xml version="1.0" encoding="utf-8"?>
<!-- Generator: Adobe Illustrator 15.0.2, SVG Export Plug-In . SVG Version: 6.00 Build 0)  -->
<!DOCTYPE svg PUBLIC "-//W3C//DTD SVG 1.1//EN" "http://www.w3.org/Graphics/SVG/1.1/DTD/svg11.dtd">
<svg version="1.1" id="WB_x5F_NoPatch" xmlns="http://www.w3.org/2000/svg" xmlns:xlink="http://www.w3.org/1999/xlink" x="0px"
	 y="0px" width="12px" height="12px" viewBox="42.062 42.061 12 12" enable-background="new 42.062 42.061 12 12"
	 xml:space="preserve">
<g>
	<g>
		<path fill="#FFFFFF" d="M43.698,50.788c-0.454,0-0.841,0.159-1.159,0.477c-0.318,0.318-0.477,0.705-0.477,1.159
			c0,0.455,0.158,0.841,0.477,1.159s0.705,0.478,1.159,0.478c0.455,0,0.841-0.159,1.159-0.478s0.478-0.704,0.478-1.159
			c0-0.454-0.159-0.841-0.478-1.159C44.539,50.947,44.153,50.788,43.698,50.788z"/>
		<path fill="#FFFFFF" d="M47.465,48.657c-0.643-0.647-1.378-1.163-2.208-1.547c-0.829-0.384-1.699-0.612-2.607-0.687h-0.043
			c-0.147,0-0.27,0.049-0.366,0.146c-0.119,0.102-0.179,0.235-0.179,0.4v1.15c0,0.142,0.047,0.265,0.14,0.366
			c0.094,0.103,0.212,0.159,0.354,0.171c1.301,0.125,2.413,0.649,3.335,1.572c0.924,0.923,1.447,2.035,1.572,3.337
			c0.012,0.142,0.068,0.26,0.171,0.354s0.225,0.141,0.366,0.141h1.151c0.165,0,0.299-0.06,0.4-0.179
			c0.108-0.114,0.157-0.251,0.146-0.409c-0.074-0.909-0.303-1.778-0.687-2.608C48.628,50.035,48.112,49.299,47.465,48.657z"/>
		<path fill="#FFFFFF" d="M53.039,49.215c-0.608-1.36-1.443-2.569-2.506-3.626c-1.057-1.063-2.266-1.897-3.626-2.506
			c-1.361-0.607-2.785-0.948-4.274-1.022h-0.025c-0.147,0-0.272,0.051-0.375,0.153c-0.113,0.103-0.17,0.233-0.17,0.393v1.218
			c0,0.143,0.05,0.266,0.148,0.371c0.1,0.105,0.221,0.16,0.362,0.166c1.222,0.074,2.382,0.364,3.481,0.87
			c1.1,0.505,2.054,1.163,2.864,1.973c0.81,0.81,1.468,1.764,1.974,2.863c0.505,1.1,0.792,2.26,0.86,3.481
			c0.006,0.143,0.062,0.263,0.166,0.362c0.105,0.1,0.231,0.149,0.38,0.149h1.218c0.158,0,0.289-0.057,0.392-0.171
			c0.113-0.113,0.165-0.247,0.153-0.4C53.987,52.001,53.645,50.576,53.039,49.215z"/>
	</g>
</g>
</svg>
