<?xml version="1.0" encoding="utf-8"?>
<!-- Generator: Adobe Illustrator 15.0.2, SVG Export Plug-In . SVG Version: 6.00 Build 0)  -->
<!DOCTYPE svg PUBLIC "-//W3C//DTD SVG 1.1//EN" "http://www.w3.org/Graphics/SVG/1.1/DTD/svg11.dtd">
<svg version="1.1" id="WB_x5F_NoPatch" xmlns="http://www.w3.org/2000/svg" xmlns:xlink="http://www.w3.org/1999/xlink" x="0px"
	 y="0px" width="12px" height="12px" viewBox="42.062 42.062 12 12" enable-background="new 42.062 42.062 12 12"
	 xml:space="preserve">
<g id="XMLID_13_">
	<path id="XMLID_17_" fill="#FFFFFF" d="M50.487,42.062h-4.85c-1.972,0-3.575,1.604-3.575,3.575v4.85
		c0,1.972,1.604,3.575,3.575,3.575h4.85c1.972,0,3.575-1.604,3.575-3.575v-4.85C54.062,43.665,52.458,42.062,50.487,42.062z
		 M52.855,50.486c0,1.309-1.06,2.368-2.368,2.368h-4.85c-1.308,0-2.368-1.06-2.368-2.368v-4.85c0-1.308,1.06-2.368,2.368-2.368h4.85
		c1.309,0,2.368,1.06,2.368,2.368V50.486L52.855,50.486z"/>
	<path id="XMLID_81_" fill="#FFFFFF" d="M48.062,44.958c-1.711,0-3.104,1.392-3.104,3.104c0,1.711,1.393,3.104,3.104,3.104
		s3.104-1.393,3.104-3.104C51.166,46.35,49.773,44.958,48.062,44.958z M48.062,49.958c-1.047,0-1.896-0.85-1.896-1.896
		s0.85-1.896,1.896-1.896s1.896,0.85,1.896,1.896S49.109,49.958,48.062,49.958z"/>
	<circle id="XMLID_83_" fill="#FFFFFF" cx="51.171" cy="44.981" r="0.744"/>
</g>
</svg>
